<svg xmlns="http://www.w3.org/2000/svg" xmlns:xlink="http://www.w3.org/1999/xlink" width="250" zoomAndPan="magnify" viewBox="0 0 187.5 187.499992" height="250" preserveAspectRatio="xMidYMid meet" version="1.0"><defs><clipPath id="0b46453cdd"><path d="M 62 164 L 75 164 L 75 174.472656 L 62 174.472656 Z M 62 164 " clip-rule="nonzero"/></clipPath><clipPath id="9f9bbbac6a"><path d="M 113 164 L 126 164 L 126 174.472656 L 113 174.472656 Z M 113 164 " clip-rule="nonzero"/></clipPath><clipPath id="1340da9683"><path d="M 16.242188 98 L 171 98 L 171 111 L 16.242188 111 Z M 16.242188 98 " clip-rule="nonzero"/></clipPath><clipPath id="ae2c9a95d3"><path d="M 122 13.222656 L 135 13.222656 L 135 25 L 122 25 Z M 122 13.222656 " clip-rule="nonzero"/></clipPath></defs><path fill="#00bf63" d="M 76.746094 72.527344 C 76.269531 72.921875 75.691406 73.160156 75.058594 73.21875 C 63.472656 74.113281 53.648438 81.949219 50.019531 92.738281 L 141.644531 92.738281 C 137.777344 81.175781 126.84375 73.121094 114.363281 73.121094 C 113.886719 73.121094 113.429688 73.121094 112.933594 73.160156 C 112.21875 73.21875 111.484375 73.003906 110.910156 72.566406 C 105.96875 68.855469 100.058594 66.914062 93.828125 66.914062 C 87.65625 66.894531 81.746094 68.835938 76.746094 72.527344 Z M 76.746094 72.527344 " fill-opacity="1" fill-rule="nonzero"/><g clip-path="url(#0b46453cdd)"><path fill="#00bf63" d="M 74.324219 168.226562 L 74.324219 164.417969 L 64.722656 164.417969 C 63.847656 164.417969 62.957031 164.378906 62.101562 164.335938 L 62.101562 168.226562 C 62.101562 171.597656 64.839844 174.332031 68.214844 174.332031 C 71.585938 174.332031 74.324219 171.578125 74.324219 168.226562 Z M 74.324219 168.226562 " fill-opacity="1" fill-rule="nonzero"/></g><g clip-path="url(#9f9bbbac6a)"><path fill="#00bf63" d="M 125.632812 168.226562 L 125.632812 164.335938 C 124.761719 164.398438 123.886719 164.417969 123.015625 164.417969 L 113.390625 164.417969 L 113.390625 168.226562 C 113.390625 171.597656 116.128906 174.332031 119.503906 174.332031 C 122.875 174.332031 125.632812 171.578125 125.632812 168.226562 Z M 125.632812 168.226562 " fill-opacity="1" fill-rule="nonzero"/></g><path fill="#00bf63" d="M 160.671875 129.429688 L 27.0625 129.429688 C 27.339844 130.480469 27.660156 131.53125 28.035156 132.542969 L 50.476562 132.542969 C 52.121094 132.542969 53.453125 133.871094 53.453125 135.519531 C 53.453125 137.164062 52.121094 138.492188 50.476562 138.492188 L 30.714844 138.492188 C 31.449219 139.824219 32.28125 141.074219 33.175781 142.300781 L 46.269531 142.300781 C 47.917969 142.300781 49.246094 143.632812 49.246094 145.277344 C 49.246094 146.921875 47.917969 148.253906 46.269531 148.253906 L 38.511719 148.253906 C 45.4375 154.578125 54.621094 158.464844 64.722656 158.464844 L 123.015625 158.464844 C 141.070312 158.464844 156.246094 146.109375 160.671875 129.429688 Z M 61.109375 138.492188 L 59.246094 138.492188 C 57.597656 138.492188 56.269531 137.164062 56.269531 135.519531 C 56.269531 133.871094 57.597656 132.542969 59.246094 132.542969 L 61.109375 132.542969 C 62.757812 132.542969 64.085938 133.871094 64.085938 135.519531 C 64.085938 137.164062 62.757812 138.492188 61.109375 138.492188 Z M 61.109375 138.492188 " fill-opacity="1" fill-rule="nonzero"/><path fill="#00bf63" d="M 162 119.492188 L 162 116.398438 L 25.734375 116.398438 L 25.734375 119.492188 C 25.734375 120.839844 25.8125 122.171875 25.933594 123.480469 L 161.804688 123.480469 C 161.941406 122.171875 162 120.839844 162 119.492188 Z M 162 119.492188 " fill-opacity="1" fill-rule="nonzero"/><g clip-path="url(#1340da9683)"><path fill="#00bf63" d="M 164.976562 98.6875 L 22.757812 98.6875 C 19.503906 98.6875 16.863281 101.324219 16.863281 104.578125 C 16.863281 107.832031 19.503906 110.46875 22.757812 110.46875 L 164.996094 110.46875 C 168.25 110.46875 170.890625 107.832031 170.890625 104.578125 C 170.890625 101.324219 168.230469 98.6875 164.976562 98.6875 Z M 104.125 107.53125 L 83.609375 107.53125 C 81.964844 107.53125 80.632812 106.203125 80.632812 104.558594 C 80.632812 102.910156 81.964844 101.582031 83.609375 101.582031 L 104.125 101.582031 C 105.773438 101.582031 107.101562 102.910156 107.101562 104.558594 C 107.101562 106.203125 105.773438 107.53125 104.125 107.53125 Z M 104.125 107.53125 " fill-opacity="1" fill-rule="nonzero"/></g><path fill="#00bf63" d="M 36.746094 64.769531 C 39.898438 64.769531 42.480469 62.191406 42.480469 59.039062 C 42.480469 55.886719 39.898438 53.308594 36.746094 53.308594 C 33.589844 53.308594 31.011719 55.886719 31.011719 59.039062 C 31.011719 62.191406 33.589844 64.769531 36.746094 64.769531 Z M 36.746094 64.769531 " fill-opacity="1" fill-rule="nonzero"/><path fill="#00bf63" d="M 116.128906 41.625 C 116.128906 42 116.09375 42.375 116.019531 42.742188 C 115.945312 43.113281 115.835938 43.472656 115.691406 43.820312 C 115.546875 44.167969 115.371094 44.496094 115.164062 44.808594 C 114.953125 45.121094 114.714844 45.410156 114.449219 45.679688 C 114.183594 45.945312 113.894531 46.183594 113.582031 46.390625 C 113.269531 46.601562 112.9375 46.777344 112.589844 46.921875 C 112.242188 47.066406 111.882812 47.171875 111.511719 47.246094 C 111.144531 47.320312 110.769531 47.355469 110.394531 47.355469 C 110.019531 47.355469 109.644531 47.320312 109.277344 47.246094 C 108.90625 47.171875 108.546875 47.066406 108.199219 46.921875 C 107.851562 46.777344 107.523438 46.601562 107.210938 46.390625 C 106.894531 46.183594 106.605469 45.945312 106.339844 45.679688 C 106.074219 45.410156 105.835938 45.121094 105.628906 44.808594 C 105.417969 44.496094 105.242188 44.167969 105.097656 43.820312 C 104.953125 43.472656 104.84375 43.113281 104.769531 42.742188 C 104.699219 42.375 104.660156 42 104.660156 41.625 C 104.660156 41.25 104.699219 40.875 104.769531 40.507812 C 104.84375 40.136719 104.953125 39.777344 105.097656 39.429688 C 105.242188 39.082031 105.417969 38.753906 105.628906 38.441406 C 105.835938 38.128906 106.074219 37.839844 106.339844 37.570312 C 106.605469 37.304688 106.894531 37.066406 107.210938 36.859375 C 107.523438 36.648438 107.851562 36.472656 108.199219 36.328125 C 108.546875 36.183594 108.90625 36.078125 109.277344 36.003906 C 109.644531 35.929688 110.019531 35.894531 110.394531 35.894531 C 110.769531 35.894531 111.144531 35.929688 111.511719 36.003906 C 111.882812 36.078125 112.242188 36.183594 112.589844 36.328125 C 112.9375 36.472656 113.269531 36.648438 113.582031 36.859375 C 113.894531 37.066406 114.183594 37.304688 114.449219 37.570312 C 114.714844 37.839844 114.953125 38.128906 115.164062 38.441406 C 115.371094 38.753906 115.546875 39.082031 115.691406 39.429688 C 115.835938 39.777344 115.945312 40.136719 116.019531 40.507812 C 116.09375 40.875 116.128906 41.25 116.128906 41.625 Z M 116.128906 41.625 " fill-opacity="1" fill-rule="nonzero"/><g clip-path="url(#ae2c9a95d3)"><path fill="#00bf63" d="M 134.34375 18.894531 C 134.34375 19.273438 134.304688 19.644531 134.234375 20.011719 C 134.160156 20.382812 134.050781 20.742188 133.90625 21.089844 C 133.761719 21.4375 133.585938 21.765625 133.375 22.078125 C 133.167969 22.394531 132.929688 22.683594 132.664062 22.949219 C 132.398438 23.214844 132.109375 23.453125 131.792969 23.660156 C 131.480469 23.871094 131.152344 24.046875 130.804688 24.191406 C 130.457031 24.335938 130.097656 24.445312 129.726562 24.515625 C 129.359375 24.589844 128.984375 24.628906 128.609375 24.628906 C 128.230469 24.628906 127.859375 24.589844 127.492188 24.515625 C 127.121094 24.445312 126.761719 24.335938 126.414062 24.191406 C 126.066406 24.046875 125.734375 23.871094 125.421875 23.660156 C 125.109375 23.453125 124.820312 23.214844 124.554688 22.949219 C 124.289062 22.683594 124.050781 22.394531 123.839844 22.078125 C 123.632812 21.765625 123.457031 21.4375 123.3125 21.089844 C 123.167969 20.742188 123.058594 20.382812 122.984375 20.011719 C 122.910156 19.644531 122.875 19.273438 122.875 18.894531 C 122.875 18.519531 122.910156 18.144531 122.984375 17.777344 C 123.058594 17.40625 123.167969 17.050781 123.3125 16.703125 C 123.457031 16.355469 123.632812 16.023438 123.839844 15.710938 C 124.050781 15.398438 124.289062 15.109375 124.554688 14.84375 C 124.820312 14.574219 125.109375 14.339844 125.421875 14.128906 C 125.734375 13.921875 126.066406 13.742188 126.414062 13.597656 C 126.761719 13.457031 127.121094 13.347656 127.492188 13.273438 C 127.859375 13.199219 128.230469 13.164062 128.609375 13.164062 C 128.984375 13.164062 129.359375 13.199219 129.726562 13.273438 C 130.097656 13.347656 130.457031 13.457031 130.804688 13.597656 C 131.152344 13.742188 131.480469 13.921875 131.792969 14.128906 C 132.109375 14.339844 132.398438 14.574219 132.664062 14.84375 C 132.929688 15.109375 133.167969 15.398438 133.375 15.710938 C 133.585938 16.023438 133.761719 16.355469 133.90625 16.703125 C 134.050781 17.050781 134.160156 17.40625 134.234375 17.777344 C 134.304688 18.144531 134.34375 18.519531 134.34375 18.894531 Z M 134.34375 18.894531 " fill-opacity="1" fill-rule="nonzero"/></g></svg>