<svg xmlns="http://www.w3.org/2000/svg" xmlns:xlink="http://www.w3.org/1999/xlink" width="51" zoomAndPan="magnify" viewBox="0 0 375 374.999991" height="500" preserveAspectRatio="xMidYMid meet" version="1.0"><defs><clipPath id="8114c8b79d"><path d="M 177 210 L 182 210 L 182 213.664062 L 177 213.664062 Z M 177 210 " clip-rule="nonzero"/></clipPath><clipPath id="ec16315891"><path d="M 194 210 L 199 210 L 199 213.664062 L 194 213.664062 Z M 194 210 " clip-rule="nonzero"/></clipPath><clipPath id="2195aa9de9"><path d="M 162.152344 188 L 213 188 L 213 193 L 162.152344 193 Z M 162.152344 188 " clip-rule="nonzero"/></clipPath><clipPath id="3126513dd7"><path d="M 197 161.164062 L 201 161.164062 L 201 165 L 197 165 Z M 197 161.164062 " clip-rule="nonzero"/></clipPath></defs><path fill="#00bf63" d="M 182.027344 180.472656 C 181.871094 180.601562 181.683594 180.679688 181.472656 180.699219 C 177.667969 180.992188 174.441406 183.542969 173.25 187.054688 L 203.347656 187.054688 C 202.078125 183.289062 198.488281 180.667969 194.386719 180.667969 C 194.230469 180.667969 194.082031 180.667969 193.917969 180.679688 C 193.683594 180.699219 193.441406 180.628906 193.253906 180.488281 C 191.628906 179.28125 189.6875 178.648438 187.640625 178.648438 C 185.613281 178.640625 183.671875 179.273438 182.027344 180.472656 Z M 182.027344 180.472656 " fill-opacity="1" fill-rule="nonzero"/><g clip-path="url(#8114c8b79d)"><path fill="#00bf63" d="M 181.234375 211.632812 L 181.234375 210.390625 L 178.078125 210.390625 C 177.792969 210.390625 177.5 210.378906 177.21875 210.367188 L 177.21875 211.632812 C 177.21875 212.730469 178.117188 213.621094 179.226562 213.621094 C 180.332031 213.621094 181.234375 212.722656 181.234375 211.632812 Z M 181.234375 211.632812 " fill-opacity="1" fill-rule="nonzero"/></g><g clip-path="url(#ec16315891)"><path fill="#00bf63" d="M 198.089844 211.632812 L 198.089844 210.367188 C 197.800781 210.386719 197.515625 210.390625 197.230469 210.390625 L 194.066406 210.390625 L 194.066406 211.632812 C 194.066406 212.730469 194.96875 213.621094 196.074219 213.621094 C 197.183594 213.621094 198.089844 212.722656 198.089844 211.632812 Z M 198.089844 211.632812 " fill-opacity="1" fill-rule="nonzero"/></g><path fill="#00bf63" d="M 209.601562 199 L 165.707031 199 C 165.796875 199.34375 165.902344 199.683594 166.027344 200.015625 L 173.398438 200.015625 C 173.9375 200.015625 174.375 200.449219 174.375 200.984375 C 174.375 201.519531 173.9375 201.953125 173.398438 201.953125 L 166.90625 201.953125 C 167.148438 202.382812 167.421875 202.792969 167.714844 203.191406 L 172.015625 203.191406 C 172.558594 203.191406 172.992188 203.625 172.992188 204.160156 C 172.992188 204.695312 172.558594 205.128906 172.015625 205.128906 L 169.46875 205.128906 C 171.742188 207.1875 174.761719 208.453125 178.078125 208.453125 L 197.230469 208.453125 C 203.160156 208.453125 208.148438 204.433594 209.601562 199 Z M 176.890625 201.953125 L 176.277344 201.953125 C 175.738281 201.953125 175.300781 201.519531 175.300781 200.984375 C 175.300781 200.449219 175.738281 200.015625 176.277344 200.015625 L 176.890625 200.015625 C 177.433594 200.015625 177.871094 200.449219 177.871094 200.984375 C 177.871094 201.519531 177.433594 201.953125 176.890625 201.953125 Z M 176.890625 201.953125 " fill-opacity="1" fill-rule="nonzero"/><path fill="#00bf63" d="M 210.035156 195.765625 L 210.035156 194.757812 L 165.269531 194.757812 L 165.269531 195.765625 C 165.269531 196.203125 165.296875 196.636719 165.335938 197.0625 L 209.972656 197.0625 C 210.015625 196.636719 210.035156 196.203125 210.035156 195.765625 Z M 210.035156 195.765625 " fill-opacity="1" fill-rule="nonzero"/><g clip-path="url(#2195aa9de9)"><path fill="#00bf63" d="M 211.015625 188.992188 L 164.292969 188.992188 C 163.222656 188.992188 162.355469 189.851562 162.355469 190.910156 C 162.355469 191.96875 163.222656 192.828125 164.292969 192.828125 L 211.019531 192.828125 C 212.089844 192.828125 212.957031 191.96875 212.957031 190.910156 C 212.957031 189.851562 212.082031 188.992188 211.015625 188.992188 Z M 191.023438 191.871094 L 184.285156 191.871094 C 183.742188 191.871094 183.304688 191.4375 183.304688 190.902344 C 183.304688 190.367188 183.742188 189.933594 184.285156 189.933594 L 191.023438 189.933594 C 191.5625 189.933594 192 190.367188 192 190.902344 C 192 191.4375 191.5625 191.871094 191.023438 191.871094 Z M 191.023438 191.871094 " fill-opacity="1" fill-rule="nonzero"/></g><path fill="#00bf63" d="M 168.886719 177.949219 C 169.925781 177.949219 170.769531 177.109375 170.769531 176.082031 C 170.769531 175.054688 169.925781 174.214844 168.886719 174.214844 C 167.851562 174.214844 167.003906 175.054688 167.003906 176.082031 C 167.003906 177.109375 167.851562 177.949219 168.886719 177.949219 Z M 168.886719 177.949219 " fill-opacity="1" fill-rule="nonzero"/><path fill="#00bf63" d="M 194.96875 170.414062 C 194.96875 170.660156 194.917969 170.898438 194.824219 171.128906 C 194.726562 171.355469 194.589844 171.558594 194.414062 171.734375 C 194.238281 171.90625 194.035156 172.042969 193.804688 172.136719 C 193.574219 172.230469 193.332031 172.28125 193.082031 172.28125 C 192.832031 172.28125 192.59375 172.230469 192.363281 172.136719 C 192.132812 172.042969 191.925781 171.90625 191.75 171.734375 C 191.574219 171.558594 191.4375 171.355469 191.34375 171.128906 C 191.246094 170.898438 191.199219 170.660156 191.199219 170.414062 C 191.199219 170.164062 191.246094 169.925781 191.34375 169.699219 C 191.4375 169.46875 191.574219 169.269531 191.75 169.09375 C 191.925781 168.917969 192.132812 168.785156 192.363281 168.6875 C 192.59375 168.59375 192.832031 168.546875 193.082031 168.546875 C 193.332031 168.546875 193.574219 168.59375 193.804688 168.6875 C 194.035156 168.785156 194.238281 168.917969 194.414062 169.09375 C 194.589844 169.269531 194.726562 169.46875 194.824219 169.699219 C 194.917969 169.925781 194.96875 170.164062 194.96875 170.414062 Z M 194.96875 170.414062 " fill-opacity="1" fill-rule="nonzero"/><g clip-path="url(#3126513dd7)"><path fill="#00bf63" d="M 200.949219 163.011719 C 200.949219 163.261719 200.902344 163.5 200.808594 163.726562 C 200.710938 163.957031 200.574219 164.15625 200.398438 164.332031 C 200.222656 164.507812 200.019531 164.640625 199.789062 164.738281 C 199.558594 164.832031 199.316406 164.878906 199.066406 164.878906 C 198.816406 164.878906 198.578125 164.832031 198.347656 164.738281 C 198.113281 164.640625 197.910156 164.507812 197.734375 164.332031 C 197.558594 164.15625 197.421875 163.957031 197.328125 163.726562 C 197.230469 163.5 197.183594 163.261719 197.183594 163.011719 C 197.183594 162.765625 197.230469 162.527344 197.328125 162.296875 C 197.421875 162.070312 197.558594 161.867188 197.734375 161.691406 C 197.910156 161.519531 198.113281 161.382812 198.347656 161.289062 C 198.578125 161.195312 198.816406 161.148438 199.066406 161.148438 C 199.316406 161.148438 199.558594 161.195312 199.789062 161.289062 C 200.019531 161.382812 200.222656 161.519531 200.398438 161.691406 C 200.574219 161.867188 200.710938 162.070312 200.808594 162.296875 C 200.902344 162.527344 200.949219 162.765625 200.949219 163.011719 Z M 200.949219 163.011719 " fill-opacity="1" fill-rule="nonzero"/></g></svg>