<svg xmlns="http://www.w3.org/2000/svg" xmlns:xlink="http://www.w3.org/1999/xlink" width="200" zoomAndPan="magnify" viewBox="0 0 375 374.999991" height="200" preserveAspectRatio="xMidYMid meet" version="1.0"><defs><g/><clipPath id="79b840477e"><path d="M 95 208 L 100 208 L 100 211.949219 L 95 211.949219 Z M 95 208 " clip-rule="nonzero"/></clipPath><clipPath id="89d97166c3"><path d="M 112 208 L 117 208 L 117 211.949219 L 112 211.949219 Z M 112 208 " clip-rule="nonzero"/></clipPath><clipPath id="5c12bae003"><path d="M 80.121094 187 L 131 187 L 131 192 L 80.121094 192 Z M 80.121094 187 " clip-rule="nonzero"/></clipPath><clipPath id="6ef79bdbfa"><path d="M 115 159.449219 L 119 159.449219 L 119 164 L 115 164 Z M 115 159.449219 " clip-rule="nonzero"/></clipPath></defs><path fill="#00bf63" d="M 99.996094 178.757812 C 99.839844 178.886719 99.652344 178.964844 99.441406 178.984375 C 95.636719 179.273438 92.410156 181.824219 91.214844 185.339844 L 121.316406 185.339844 C 120.046875 181.574219 116.457031 178.953125 112.355469 178.953125 C 112.199219 178.953125 112.050781 178.953125 111.886719 178.964844 C 111.652344 178.984375 111.410156 178.914062 111.222656 178.773438 C 109.597656 177.5625 107.65625 176.929688 105.609375 176.929688 C 103.582031 176.925781 101.640625 177.558594 99.996094 178.757812 Z M 99.996094 178.757812 " fill-opacity="1" fill-rule="nonzero"/><g clip-path="url(#79b840477e)"><path fill="#00bf63" d="M 99.203125 209.917969 L 99.203125 208.675781 L 96.046875 208.675781 C 95.761719 208.675781 95.464844 208.664062 95.1875 208.652344 L 95.1875 209.917969 C 95.1875 211.015625 96.085938 211.90625 97.195312 211.90625 C 98.300781 211.90625 99.203125 211.007812 99.203125 209.917969 Z M 99.203125 209.917969 " fill-opacity="1" fill-rule="nonzero"/></g><g clip-path="url(#89d97166c3)"><path fill="#00bf63" d="M 116.058594 209.917969 L 116.058594 208.652344 C 115.769531 208.671875 115.484375 208.675781 115.195312 208.675781 L 112.035156 208.675781 L 112.035156 209.917969 C 112.035156 211.015625 112.933594 211.90625 114.042969 211.90625 C 115.152344 211.90625 116.058594 211.007812 116.058594 209.917969 Z M 116.058594 209.917969 " fill-opacity="1" fill-rule="nonzero"/></g><path fill="#00bf63" d="M 127.570312 197.285156 L 83.675781 197.285156 C 83.765625 197.628906 83.871094 197.96875 83.996094 198.300781 L 91.367188 198.300781 C 91.90625 198.300781 92.34375 198.730469 92.34375 199.269531 C 92.34375 199.804688 91.90625 200.238281 91.367188 200.238281 L 84.875 200.238281 C 85.117188 200.667969 85.390625 201.074219 85.683594 201.476562 L 89.984375 201.476562 C 90.527344 201.476562 90.960938 201.910156 90.960938 202.445312 C 90.960938 202.980469 90.527344 203.414062 89.984375 203.414062 L 87.4375 203.414062 C 89.710938 205.472656 92.730469 206.738281 96.046875 206.738281 L 115.195312 206.738281 C 121.128906 206.738281 126.113281 202.714844 127.570312 197.285156 Z M 94.859375 200.238281 L 94.246094 200.238281 C 93.707031 200.238281 93.269531 199.804688 93.269531 199.269531 C 93.269531 198.730469 93.707031 198.300781 94.246094 198.300781 L 94.859375 198.300781 C 95.402344 198.300781 95.839844 198.730469 95.839844 199.269531 C 95.839844 199.804688 95.402344 200.238281 94.859375 200.238281 Z M 94.859375 200.238281 " fill-opacity="1" fill-rule="nonzero"/><path fill="#00bf63" d="M 128.003906 194.050781 L 128.003906 193.042969 L 83.238281 193.042969 L 83.238281 194.050781 C 83.238281 194.488281 83.265625 194.921875 83.304688 195.347656 L 127.941406 195.347656 C 127.984375 194.921875 128.003906 194.488281 128.003906 194.050781 Z M 128.003906 194.050781 " fill-opacity="1" fill-rule="nonzero"/><g clip-path="url(#5c12bae003)"><path fill="#00bf63" d="M 128.984375 187.277344 L 82.261719 187.277344 C 81.191406 187.277344 80.324219 188.136719 80.324219 189.195312 C 80.324219 190.253906 81.191406 191.113281 82.261719 191.113281 L 128.988281 191.113281 C 130.058594 191.113281 130.925781 190.253906 130.925781 189.195312 C 130.925781 188.136719 130.050781 187.277344 128.984375 187.277344 Z M 108.992188 190.15625 L 102.253906 190.15625 C 101.710938 190.15625 101.273438 189.722656 101.273438 189.1875 C 101.273438 188.652344 101.710938 188.21875 102.253906 188.21875 L 108.992188 188.21875 C 109.53125 188.21875 109.96875 188.652344 109.96875 189.1875 C 109.96875 189.722656 109.53125 190.15625 108.992188 190.15625 Z M 108.992188 190.15625 " fill-opacity="1" fill-rule="nonzero"/></g><path fill="#00bf63" d="M 86.855469 176.234375 C 87.890625 176.234375 88.738281 175.394531 88.738281 174.367188 C 88.738281 173.339844 87.890625 172.5 86.855469 172.5 C 85.820312 172.5 84.972656 173.339844 84.972656 174.367188 C 84.972656 175.394531 85.820312 176.234375 86.855469 176.234375 Z M 86.855469 176.234375 " fill-opacity="1" fill-rule="nonzero"/><path fill="#00bf63" d="M 112.933594 168.699219 C 112.933594 168.945312 112.886719 169.183594 112.792969 169.410156 C 112.695312 169.640625 112.558594 169.84375 112.382812 170.015625 C 112.207031 170.191406 112.003906 170.328125 111.773438 170.421875 C 111.542969 170.515625 111.300781 170.5625 111.050781 170.5625 C 110.800781 170.5625 110.5625 170.515625 110.332031 170.421875 C 110.101562 170.328125 109.894531 170.191406 109.71875 170.015625 C 109.542969 169.84375 109.40625 169.640625 109.3125 169.410156 C 109.214844 169.183594 109.167969 168.945312 109.167969 168.699219 C 109.167969 168.449219 109.214844 168.210938 109.3125 167.984375 C 109.40625 167.753906 109.542969 167.554688 109.71875 167.378906 C 109.894531 167.203125 110.101562 167.066406 110.332031 166.972656 C 110.5625 166.878906 110.800781 166.832031 111.050781 166.832031 C 111.300781 166.832031 111.542969 166.878906 111.773438 166.972656 C 112.003906 167.066406 112.207031 167.203125 112.382812 167.378906 C 112.558594 167.554688 112.695312 167.753906 112.792969 167.984375 C 112.886719 168.210938 112.933594 168.449219 112.933594 168.699219 Z M 112.933594 168.699219 " fill-opacity="1" fill-rule="nonzero"/><g clip-path="url(#6ef79bdbfa)"><path fill="#00bf63" d="M 118.917969 161.296875 C 118.917969 161.542969 118.871094 161.78125 118.777344 162.011719 C 118.679688 162.242188 118.542969 162.441406 118.367188 162.617188 C 118.191406 162.792969 117.988281 162.925781 117.757812 163.023438 C 117.523438 163.117188 117.285156 163.164062 117.035156 163.164062 C 116.785156 163.164062 116.546875 163.117188 116.3125 163.023438 C 116.082031 162.925781 115.878906 162.792969 115.703125 162.617188 C 115.527344 162.441406 115.390625 162.242188 115.296875 162.011719 C 115.199219 161.78125 115.152344 161.542969 115.152344 161.296875 C 115.152344 161.050781 115.199219 160.8125 115.296875 160.582031 C 115.390625 160.355469 115.527344 160.152344 115.703125 159.976562 C 115.878906 159.804688 116.082031 159.667969 116.3125 159.574219 C 116.546875 159.480469 116.785156 159.429688 117.035156 159.429688 C 117.285156 159.429688 117.523438 159.480469 117.757812 159.574219 C 117.988281 159.667969 118.191406 159.804688 118.367188 159.976562 C 118.542969 160.152344 118.679688 160.355469 118.777344 160.582031 C 118.871094 160.8125 118.917969 161.050781 118.917969 161.296875 Z M 118.917969 161.296875 " fill-opacity="1" fill-rule="nonzero"/></g><g fill="#000000" fill-opacity="1"><g transform="translate(136.934892, 188.276589)"><g><path d="M 0.789062 0 L 3.332031 0 L 3.332031 -2.15625 L 7.304688 -4.921875 L 12.582031 0 L 16.105469 0 L 9.21875 -6.339844 L 16.105469 -11.261719 L 12.144531 -11.261719 L 3.332031 -5.035156 L 3.332031 -11.261719 L 0.789062 -11.261719 Z M 0.789062 0 "/></g></g></g><g fill="#000000" fill-opacity="1"><g transform="translate(154.090589, 188.276589)"><g><path d="M 0.628906 0 L 3.441406 0 L 4.808594 -2.492188 L 11.984375 -2.492188 L 13.351562 0 L 16.167969 0 L 10.039062 -11.261719 L 6.757812 -11.261719 Z M 5.792969 -4.457031 L 8.398438 -9.1875 L 11.003906 -4.457031 Z M 5.792969 -4.457031 "/></g></g></g><g fill="#000000" fill-opacity="1"><g transform="translate(171.31059, 188.276589)"><g><path d="M 0.789062 0 L 12.371094 0 L 12.371094 -2.140625 L 3.332031 -2.140625 L 3.332031 -11.261719 L 0.789062 -11.261719 Z M 0.789062 0 "/></g></g></g><g fill="#000000" fill-opacity="1"><g transform="translate(184.736177, 188.276589)"><g><path d="M 0.789062 0 L 3.332031 0 L 3.332031 -11.261719 L 0.789062 -11.261719 Z M 0.789062 0 "/></g></g></g><g fill="#000000" fill-opacity="1"><g transform="translate(189.286677, 188.276589)"><g><path d="M 5.261719 0 L 8.671875 0 L 12.386719 -8.589844 L 16.105469 0 L 19.515625 0 L 24.148438 -11.261719 L 21.394531 -11.261719 L 17.792969 -2.300781 L 13.964844 -11.261719 L 10.8125 -11.261719 L 6.980469 -2.300781 L 3.378906 -11.261719 L 0.628906 -11.261719 Z M 5.261719 0 "/></g></g></g><g fill="#000000" fill-opacity="1"><g transform="translate(214.481404, 188.276589)"><g><path d="M 7.867188 0.160156 C 12.804688 0.160156 14.945312 -1.738281 14.945312 -5.648438 L 14.945312 -11.261719 L 12.402344 -11.261719 L 12.402344 -5.648438 C 12.402344 -3.988281 11.96875 -1.980469 7.867188 -1.980469 C 3.765625 -1.980469 3.332031 -3.972656 3.332031 -5.648438 L 3.332031 -11.261719 L 0.789062 -11.261719 L 0.789062 -5.648438 C 0.789062 -1.722656 2.910156 0.160156 7.867188 0.160156 Z M 7.867188 0.160156 "/></g></g></g><g fill="#000000" fill-opacity="1"><g transform="translate(230.640267, 188.276589)"><g><path d="M 0.789062 0 L 12.371094 0 L 12.371094 -2.140625 L 3.332031 -2.140625 L 3.332031 -11.261719 L 0.789062 -11.261719 Z M 0.789062 0 "/></g></g></g><g fill="#000000" fill-opacity="1"><g transform="translate(244.065856, 188.276589)"><g><path d="M 7.867188 0.160156 C 12.804688 0.160156 14.945312 -1.738281 14.945312 -5.648438 L 14.945312 -11.261719 L 12.402344 -11.261719 L 12.402344 -5.648438 C 12.402344 -3.988281 11.96875 -1.980469 7.867188 -1.980469 C 3.765625 -1.980469 3.332031 -3.972656 3.332031 -5.648438 L 3.332031 -11.261719 L 0.789062 -11.261719 L 0.789062 -5.648438 C 0.789062 -1.722656 2.910156 0.160156 7.867188 0.160156 Z M 7.867188 0.160156 "/></g></g></g><g fill="#000000" fill-opacity="1"><g transform="translate(136.934892, 203.276588)"><g><path d="M 0.789062 0 L 3.332031 0 L 3.332031 -3.683594 L 11.726562 -3.683594 L 11.726562 -5.808594 L 3.332031 -5.808594 L 3.332031 -9.121094 L 12.691406 -9.121094 L 12.691406 -11.261719 L 0.789062 -11.261719 Z M 0.789062 0 "/></g></g></g><g fill="#000000" fill-opacity="1"><g transform="translate(150.682035, 203.276588)"><g><path d="M 7.867188 0.160156 C 12.804688 0.160156 14.945312 -1.738281 14.945312 -5.648438 L 14.945312 -11.261719 L 12.402344 -11.261719 L 12.402344 -5.648438 C 12.402344 -3.988281 11.96875 -1.980469 7.867188 -1.980469 C 3.765625 -1.980469 3.332031 -3.972656 3.332031 -5.648438 L 3.332031 -11.261719 L 0.789062 -11.261719 L 0.789062 -5.648438 C 0.789062 -1.722656 2.910156 0.160156 7.867188 0.160156 Z M 7.867188 0.160156 "/></g></g></g><g fill="#000000" fill-opacity="1"><g transform="translate(166.840894, 203.276588)"><g><path d="M 0.789062 0 L 3.332031 0 L 3.332031 -3.105469 L 8.589844 -3.105469 L 10.488281 0 L 13.480469 0 L 11.375 -3.410156 C 12.964844 -3.957031 13.949219 -5.292969 13.949219 -7.191406 C 13.949219 -9.699219 12.195312 -11.261719 9.636719 -11.261719 L 0.789062 -11.261719 Z M 3.332031 -5.246094 L 3.332031 -9.121094 L 8.832031 -9.121094 C 9.828125 -9.121094 11.40625 -9.121094 11.40625 -7.191406 C 11.40625 -5.246094 9.828125 -5.246094 8.832031 -5.246094 Z M 3.332031 -5.246094 "/></g></g></g><g fill="#000000" fill-opacity="1"><g transform="translate(181.842126, 203.276588)"><g><path d="M 0.789062 0 L 3.332031 0 L 3.332031 -8.65625 L 11.792969 0 L 15.300781 0 L 15.300781 -11.261719 L 12.757812 -11.261719 L 12.757812 -2.605469 L 4.3125 -11.261719 L 0.789062 -11.261719 Z M 0.789062 0 "/></g></g></g><g fill="#000000" fill-opacity="1"><g transform="translate(198.3547, 203.276588)"><g><path d="M 0.789062 0 L 3.332031 0 L 3.332031 -11.261719 L 0.789062 -11.261719 Z M 0.789062 0 "/></g></g></g><g fill="#000000" fill-opacity="1"><g transform="translate(202.905202, 203.276588)"><g><path d="M 6.273438 0 L 8.816406 0 L 8.816406 -9.121094 L 14.460938 -9.121094 L 14.460938 -11.261719 L 0.628906 -11.261719 L 0.628906 -9.121094 L 6.273438 -9.121094 Z M 6.273438 0 "/></g></g></g><g fill="#000000" fill-opacity="1"><g transform="translate(218.420941, 203.276588)"><g><path d="M 7.867188 0.160156 C 12.804688 0.160156 14.945312 -1.738281 14.945312 -5.648438 L 14.945312 -11.261719 L 12.402344 -11.261719 L 12.402344 -5.648438 C 12.402344 -3.988281 11.96875 -1.980469 7.867188 -1.980469 C 3.765625 -1.980469 3.332031 -3.972656 3.332031 -5.648438 L 3.332031 -11.261719 L 0.789062 -11.261719 L 0.789062 -5.648438 C 0.789062 -1.722656 2.910156 0.160156 7.867188 0.160156 Z M 7.867188 0.160156 "/></g></g></g><g fill="#000000" fill-opacity="1"><g transform="translate(234.579803, 203.276588)"><g><path d="M 0.789062 0 L 3.332031 0 L 3.332031 -3.105469 L 8.589844 -3.105469 L 10.488281 0 L 13.480469 0 L 11.375 -3.410156 C 12.964844 -3.957031 13.949219 -5.292969 13.949219 -7.191406 C 13.949219 -9.699219 12.195312 -11.261719 9.636719 -11.261719 L 0.789062 -11.261719 Z M 3.332031 -5.246094 L 3.332031 -9.121094 L 8.832031 -9.121094 C 9.828125 -9.121094 11.40625 -9.121094 11.40625 -7.191406 C 11.40625 -5.246094 9.828125 -5.246094 8.832031 -5.246094 Z M 3.332031 -5.246094 "/></g></g></g><g fill="#000000" fill-opacity="1"><g transform="translate(249.581038, 203.276588)"><g><path d="M 0.789062 0 L 12.691406 0 L 12.691406 -2.042969 L 3.332031 -2.042969 L 3.332031 -4.664062 L 12.691406 -4.664062 L 12.691406 -6.597656 L 3.332031 -6.597656 L 3.332031 -9.21875 L 12.691406 -9.21875 L 12.691406 -11.261719 L 0.789062 -11.261719 Z M 0.789062 0 "/></g></g></g><path stroke-linecap="round" transform="matrix(0.751149, 0.00353178, -0.00352634, 0.749992, 136.938423, 207.618721)" fill="none" stroke-linejoin="miter" d="M 1.00193 0.998457 L 211.684432 1.001137 " stroke="#000000" stroke-width="2" stroke-opacity="1" stroke-miterlimit="4"/></svg>