<svg xmlns="http://www.w3.org/2000/svg" xmlns:xlink="http://www.w3.org/1999/xlink" width="100" zoomAndPan="magnify" viewBox="0 0 375 187.499995" height="85" preserveAspectRatio="xMidYMid meet" version="1.0"><defs><g/><clipPath id="793ad0c4a5"><path d="M 58 159 L 70 159 L 70 168.296875 L 58 168.296875 Z M 58 159 " clip-rule="nonzero"/></clipPath><clipPath id="70421d0555"><path d="M 102 159 L 114 159 L 114 168.296875 L 102 168.296875 Z M 102 159 " clip-rule="nonzero"/></clipPath><clipPath id="e0d0234d68"><path d="M 19.199219 103 L 152 103 L 152 114 L 19.199219 114 Z M 19.199219 103 " clip-rule="nonzero"/></clipPath><clipPath id="61e274ec53"><path d="M 110 29.917969 L 121 29.917969 L 121 40 L 110 40 Z M 110 29.917969 " clip-rule="nonzero"/></clipPath></defs><path fill="#00bf63" d="M 71.085938 80.808594 C 70.679688 81.152344 70.183594 81.355469 69.640625 81.40625 C 59.703125 82.171875 51.28125 88.894531 48.167969 98.15625 L 126.742188 98.15625 C 123.425781 88.230469 114.050781 81.320312 103.347656 81.320312 C 102.941406 81.320312 102.546875 81.320312 102.121094 81.355469 C 101.511719 81.40625 100.878906 81.21875 100.386719 80.84375 C 96.152344 77.660156 91.078125 75.992188 85.738281 75.992188 C 80.445312 75.976562 75.375 77.644531 71.085938 80.808594 Z M 71.085938 80.808594 " fill-opacity="1" fill-rule="nonzero"/><g clip-path="url(#793ad0c4a5)"><path fill="#00bf63" d="M 69.011719 162.9375 L 69.011719 159.667969 L 60.777344 159.667969 C 60.027344 159.667969 59.261719 159.632812 58.53125 159.601562 L 58.53125 162.9375 C 58.53125 165.832031 60.878906 168.179688 63.769531 168.179688 C 66.664062 168.179688 69.011719 165.8125 69.011719 162.9375 Z M 69.011719 162.9375 " fill-opacity="1" fill-rule="nonzero"/></g><g clip-path="url(#70421d0555)"><path fill="#00bf63" d="M 113.011719 162.9375 L 113.011719 159.601562 C 112.265625 159.652344 111.515625 159.667969 110.765625 159.667969 L 102.515625 159.667969 L 102.515625 162.9375 C 102.515625 165.832031 104.863281 168.179688 107.753906 168.179688 C 110.648438 168.179688 113.011719 165.8125 113.011719 162.9375 Z M 113.011719 162.9375 " fill-opacity="1" fill-rule="nonzero"/></g><path fill="#00bf63" d="M 143.0625 129.644531 L 28.480469 129.644531 C 28.71875 130.546875 28.992188 131.449219 29.316406 132.316406 L 48.558594 132.316406 C 49.972656 132.316406 51.113281 133.457031 51.113281 134.867188 C 51.113281 136.28125 49.972656 137.421875 48.558594 137.421875 L 31.613281 137.421875 C 32.242188 138.5625 32.957031 139.636719 33.722656 140.691406 L 44.953125 140.691406 C 46.363281 140.691406 47.503906 141.832031 47.503906 143.242188 C 47.503906 144.65625 46.363281 145.796875 44.953125 145.796875 L 38.300781 145.796875 C 44.238281 151.226562 52.117188 154.5625 60.777344 154.5625 L 110.765625 154.5625 C 126.25 154.5625 139.265625 143.957031 143.0625 129.644531 Z M 57.679688 137.421875 L 56.078125 137.421875 C 54.667969 137.421875 53.527344 136.28125 53.527344 134.867188 C 53.527344 133.457031 54.667969 132.316406 56.078125 132.316406 L 57.679688 132.316406 C 59.089844 132.316406 60.230469 133.457031 60.230469 134.867188 C 60.230469 136.28125 59.089844 137.421875 57.679688 137.421875 Z M 57.679688 137.421875 " fill-opacity="1" fill-rule="nonzero"/><path fill="#00bf63" d="M 144.199219 121.117188 L 144.199219 118.460938 L 27.339844 118.460938 L 27.339844 121.117188 C 27.339844 122.273438 27.410156 123.414062 27.511719 124.539062 L 144.03125 124.539062 C 144.148438 123.414062 144.199219 122.273438 144.199219 121.117188 Z M 144.199219 121.117188 " fill-opacity="1" fill-rule="nonzero"/><g clip-path="url(#e0d0234d68)"><path fill="#00bf63" d="M 146.753906 103.261719 L 24.789062 103.261719 C 22 103.261719 19.734375 105.523438 19.734375 108.316406 C 19.734375 111.109375 22 113.371094 24.789062 113.371094 L 146.769531 113.371094 C 149.5625 113.371094 151.824219 111.109375 151.824219 108.316406 C 151.824219 105.523438 149.542969 103.261719 146.753906 103.261719 Z M 94.566406 110.851562 L 76.972656 110.851562 C 75.5625 110.851562 74.421875 109.710938 74.421875 108.300781 C 74.421875 106.886719 75.5625 105.746094 76.972656 105.746094 L 94.566406 105.746094 C 95.980469 105.746094 97.121094 106.886719 97.121094 108.300781 C 97.121094 109.710938 95.980469 110.851562 94.566406 110.851562 Z M 94.566406 110.851562 " fill-opacity="1" fill-rule="nonzero"/></g><path fill="#00bf63" d="M 36.785156 74.15625 C 39.492188 74.15625 41.703125 71.941406 41.703125 69.234375 C 41.703125 66.53125 39.492188 64.316406 36.785156 64.316406 C 34.078125 64.316406 31.867188 66.53125 31.867188 69.234375 C 31.867188 71.941406 34.078125 74.15625 36.785156 74.15625 Z M 36.785156 74.15625 " fill-opacity="1" fill-rule="nonzero"/><path fill="#00bf63" d="M 104.863281 54.292969 C 104.863281 54.613281 104.832031 54.933594 104.769531 55.25 C 104.703125 55.566406 104.613281 55.875 104.488281 56.175781 C 104.363281 56.472656 104.210938 56.753906 104.035156 57.023438 C 103.855469 57.292969 103.648438 57.542969 103.421875 57.769531 C 103.195312 58 102.945312 58.203125 102.675781 58.382812 C 102.410156 58.5625 102.125 58.710938 101.828125 58.835938 C 101.527344 58.960938 101.222656 59.054688 100.902344 59.117188 C 100.585938 59.179688 100.269531 59.210938 99.945312 59.210938 C 99.621094 59.210938 99.300781 59.179688 98.984375 59.117188 C 98.667969 59.054688 98.359375 58.960938 98.0625 58.835938 C 97.765625 58.710938 97.480469 58.5625 97.210938 58.382812 C 96.945312 58.203125 96.695312 58 96.46875 57.769531 C 96.238281 57.542969 96.035156 57.292969 95.855469 57.023438 C 95.675781 56.753906 95.523438 56.472656 95.402344 56.175781 C 95.277344 55.875 95.183594 55.566406 95.121094 55.25 C 95.058594 54.933594 95.027344 54.613281 95.027344 54.292969 C 95.027344 53.96875 95.058594 53.648438 95.121094 53.332031 C 95.183594 53.015625 95.277344 52.707031 95.402344 52.410156 C 95.523438 52.109375 95.675781 51.828125 95.855469 51.558594 C 96.035156 51.289062 96.238281 51.042969 96.46875 50.8125 C 96.695312 50.585938 96.945312 50.382812 97.210938 50.203125 C 97.480469 50.023438 97.765625 49.871094 98.0625 49.746094 C 98.359375 49.625 98.667969 49.53125 98.984375 49.46875 C 99.300781 49.402344 99.621094 49.371094 99.945312 49.371094 C 100.269531 49.371094 100.585938 49.402344 100.902344 49.46875 C 101.222656 49.53125 101.527344 49.625 101.828125 49.746094 C 102.125 49.871094 102.410156 50.023438 102.675781 50.203125 C 102.945312 50.382812 103.195312 50.585938 103.421875 50.8125 C 103.648438 51.042969 103.855469 51.289062 104.035156 51.558594 C 104.210938 51.828125 104.363281 52.109375 104.488281 52.410156 C 104.613281 52.707031 104.703125 53.015625 104.769531 53.332031 C 104.832031 53.648438 104.863281 53.96875 104.863281 54.292969 Z M 104.863281 54.292969 " fill-opacity="1" fill-rule="nonzero"/><g clip-path="url(#61e274ec53)"><path fill="#00bf63" d="M 120.480469 34.785156 C 120.480469 35.109375 120.449219 35.429688 120.386719 35.746094 C 120.324219 36.0625 120.230469 36.371094 120.109375 36.667969 C 119.984375 36.964844 119.832031 37.25 119.652344 37.519531 C 119.472656 37.785156 119.269531 38.035156 119.042969 38.265625 C 118.8125 38.492188 118.566406 38.695312 118.296875 38.875 C 118.027344 39.054688 117.746094 39.207031 117.445312 39.328125 C 117.148438 39.453125 116.839844 39.546875 116.523438 39.609375 C 116.207031 39.671875 115.886719 39.703125 115.566406 39.703125 C 115.242188 39.703125 114.921875 39.671875 114.605469 39.609375 C 114.289062 39.546875 113.980469 39.453125 113.683594 39.328125 C 113.382812 39.207031 113.101562 39.054688 112.832031 38.875 C 112.5625 38.695312 112.316406 38.492188 112.085938 38.265625 C 111.859375 38.035156 111.65625 37.785156 111.476562 37.519531 C 111.296875 37.25 111.144531 36.964844 111.023438 36.667969 C 110.898438 36.371094 110.804688 36.0625 110.742188 35.746094 C 110.679688 35.429688 110.648438 35.109375 110.648438 34.785156 C 110.648438 34.460938 110.679688 34.140625 110.742188 33.824219 C 110.804688 33.507812 110.898438 33.203125 111.023438 32.902344 C 111.144531 32.605469 111.296875 32.320312 111.476562 32.050781 C 111.65625 31.785156 111.859375 31.535156 112.085938 31.308594 C 112.316406 31.078125 112.5625 30.875 112.832031 30.695312 C 113.101562 30.515625 113.382812 30.363281 113.683594 30.242188 C 113.980469 30.117188 114.289062 30.023438 114.605469 29.960938 C 114.921875 29.898438 115.242188 29.867188 115.566406 29.867188 C 115.886719 29.867188 116.207031 29.898438 116.523438 29.960938 C 116.839844 30.023438 117.148438 30.117188 117.445312 30.242188 C 117.746094 30.363281 118.027344 30.515625 118.296875 30.695312 C 118.566406 30.875 118.8125 31.078125 119.042969 31.308594 C 119.269531 31.535156 119.472656 31.785156 119.652344 32.050781 C 119.832031 32.320312 119.984375 32.605469 120.109375 32.902344 C 120.230469 33.203125 120.324219 33.507812 120.386719 33.824219 C 120.449219 34.140625 120.480469 34.460938 120.480469 34.785156 Z M 120.480469 34.785156 " fill-opacity="1" fill-rule="nonzero"/></g><g fill="#000000" fill-opacity="1"><g transform="translate(158.304033, 125.112117)"><g><path d="M 17.757812 -0.59375 C 14.738281 -7.644531 12.265625 -12.816406 9.109375 -18.308594 C 12.769531 -24.394531 14.738281 -28.695312 17.804688 -35.972656 C 17.894531 -36.15625 18.03125 -36.386719 18.214844 -36.566406 L 13.730469 -36.566406 C 13.820312 -36.386719 13.820312 -36.15625 13.777344 -36.066406 C 10.710938 -28.925781 9.109375 -25.722656 6.085938 -20.59375 C 6.085938 -28.285156 6.179688 -32.769531 6.269531 -34.003906 C 6.269531 -35.058594 6.5 -36.109375 6.636719 -36.613281 C 6.085938 -36.613281 5.035156 -36.613281 4.117188 -36.613281 L 1.601562 -36.613281 C 1.785156 -36.109375 2.015625 -35.058594 2.015625 -34.003906 C 2.105469 -32.859375 2.242188 -28.054688 2.242188 -18.949219 C 2.242188 -4.941406 2.015625 -2.929688 2.015625 -2.5625 C 2.015625 -1.648438 1.921875 -0.503906 1.738281 0 C 2.195312 0 3.15625 0 4.117188 0 L 6.5 0 C 6.316406 -0.503906 6.269531 -1.648438 6.269531 -2.5625 C 6.269531 -2.699219 6.132812 -7.597656 6.085938 -13.457031 L 6.773438 -14.554688 C 9.65625 -9.976562 12.496094 -3.890625 13.730469 -0.503906 C 13.777344 -0.457031 13.820312 -0.230469 13.730469 0 L 18.214844 0 C 17.941406 -0.183594 17.847656 -0.367188 17.757812 -0.59375 Z M 17.757812 -0.59375 "/></g></g></g><g fill="#000000" fill-opacity="1"><g transform="translate(178.5751, 125.112117)"><g><path d="M 17.894531 0 C 17.710938 -0.183594 17.621094 -0.503906 17.621094 -0.6875 C 15.148438 -11.625 12.953125 -24.164062 11.488281 -35.332031 C 11.441406 -35.746094 11.304688 -36.339844 11.535156 -36.613281 L 11.441406 -36.613281 C 10.160156 -36.613281 7.734375 -36.613281 7.230469 -36.613281 L 7.140625 -36.613281 C 7.367188 -36.339844 7.230469 -35.746094 7.183594 -35.332031 C 5.722656 -24.164062 3.523438 -11.625 1.050781 -0.6875 C 1.007812 -0.503906 0.960938 -0.183594 0.777344 0 L 5.125 0 C 4.988281 -0.320312 5.082031 -0.871094 5.125 -1.144531 C 5.628906 -4.300781 6.316406 -8.789062 7.183594 -13.960938 C 8.46875 -13.867188 9.929688 -13.820312 11.488281 -13.960938 C 12.355469 -8.789062 13.042969 -4.300781 13.5 -1.144531 C 13.546875 -0.871094 13.640625 -0.320312 13.546875 0 Z M 7.828125 -17.757812 C 8.285156 -20.414062 8.789062 -23.160156 9.335938 -26.042969 C 9.886719 -23.203125 10.34375 -20.414062 10.800781 -17.804688 C 9.839844 -17.667969 8.832031 -17.667969 7.828125 -17.757812 Z M 7.828125 -17.757812 "/></g></g></g><g fill="#000000" fill-opacity="1"><g transform="translate(198.525869, 125.112117)"><g><path d="M 19.679688 0 C 17.527344 -14.1875 16.019531 -28.054688 15.421875 -35.46875 C 15.378906 -35.699219 15.332031 -36.292969 15.421875 -36.613281 C 15.058594 -36.613281 11.535156 -36.613281 11.304688 -36.613281 C 11.394531 -36.292969 11.351562 -35.699219 11.351562 -35.46875 C 11.214844 -33.042969 10.574219 -21.144531 10.207031 -19.085938 C 9.886719 -21.144531 9.246094 -32.953125 9.109375 -35.46875 C 9.109375 -35.699219 9.109375 -36.292969 9.246094 -36.613281 L 9.199219 -36.613281 C 8.96875 -36.613281 5.355469 -36.613281 5.035156 -36.613281 C 5.125 -36.292969 5.082031 -35.699219 5.035156 -35.46875 C 4.441406 -28.054688 2.882812 -14.1875 0.777344 0 L 5.171875 0 C 4.941406 -0.273438 4.988281 -0.871094 5.035156 -1.28125 C 5.445312 -8.148438 5.949219 -12.3125 6.726562 -19.40625 C 7.550781 -16.339844 8.878906 -10.984375 9.609375 -7.460938 L 11.121094 -7.460938 C 11.714844 -10.664062 12.21875 -13.820312 13.730469 -19.40625 C 14.507812 -12.355469 15.011719 -8.148438 15.421875 -1.28125 C 15.46875 -0.871094 15.421875 -0.273438 15.195312 0 Z M 19.679688 0 "/></g></g></g><g fill="#000000" fill-opacity="1"><g transform="translate(220.261191, 125.112117)"><g><path d="M 13.363281 -4.300781 L 6.269531 -4.300781 C 6.132812 -7.003906 6.085938 -11.992188 6.269531 -16.0625 L 9.289062 -16.0625 C 10.296875 -16.0625 11.351562 -15.835938 11.898438 -15.699219 C 11.898438 -16.246094 11.898438 -17.300781 11.898438 -18.214844 L 11.898438 -20.734375 C 11.351562 -20.550781 10.296875 -20.320312 9.289062 -20.320312 L 6.269531 -20.320312 C 6.269531 -21.375 6.179688 -21.417969 6.179688 -25.90625 C 6.179688 -29.0625 6.222656 -31.441406 6.269531 -32.359375 L 13.320312 -32.359375 C 14.371094 -32.359375 15.421875 -32.128906 15.925781 -31.945312 C 15.925781 -32.496094 15.925781 -33.546875 15.925781 -34.464844 L 15.925781 -36.980469 C 15.421875 -36.84375 14.371094 -36.613281 13.320312 -36.613281 L 6.636719 -36.613281 C 6.085938 -36.613281 5.035156 -36.613281 4.117188 -36.613281 L 1.601562 -36.613281 C 1.785156 -36.109375 2.015625 -35.058594 2.015625 -34.003906 C 2.015625 -32.449219 2.058594 -27.871094 2.058594 -20.914062 C 2.058594 -7.644531 2.015625 -2.976562 2.015625 -2.5625 C 2.015625 -1.695312 1.921875 -0.503906 1.738281 0 L 1.875 0 C 2.015625 0 2.242188 0 2.5625 0 L 13.363281 0 C 14.417969 0 15.46875 0.230469 16.019531 0.367188 C 16.019531 -0.183594 16.019531 -1.234375 16.019531 -2.152344 L 16.019531 -4.667969 C 15.46875 -4.53125 14.417969 -4.300781 13.363281 -4.300781 Z M 13.363281 -4.300781 "/></g></g></g><g fill="#000000" fill-opacity="1"><g transform="translate(238.335878, 125.112117)"><g><path d="M 17.667969 -34.003906 C 17.667969 -35.011719 17.941406 -36.066406 18.167969 -36.613281 C 17.621094 -36.613281 16.566406 -36.613281 15.652344 -36.613281 L 13.042969 -36.613281 C 13.226562 -36.109375 13.5 -35.058594 13.5 -34.003906 C 13.59375 -22.882812 13.683594 -7.917969 13.683594 -7.414062 C 13.683594 -6.363281 12.953125 -3.707031 9.472656 -3.570312 C 5.949219 -3.707031 5.261719 -6.363281 5.261719 -7.414062 C 5.261719 -7.917969 5.355469 -22.882812 5.445312 -34.003906 C 5.445312 -35.011719 5.675781 -36.066406 5.859375 -36.613281 C 5.308594 -36.613281 4.210938 -36.613281 3.296875 -36.613281 L 0.777344 -36.613281 C 0.960938 -36.109375 1.234375 -35.058594 1.234375 -34.003906 L 1.234375 -7.414062 C 1.234375 -5.308594 2.015625 -1.464844 6.222656 -0.136719 C 6.316406 -0.0898438 6.453125 -0.046875 6.542969 -0.046875 C 6.589844 -0.046875 6.589844 0 6.636719 0 C 7.414062 0.230469 8.328125 0.320312 9.382812 0.320312 L 9.519531 0.320312 C 10.574219 0.320312 11.488281 0.230469 12.3125 0 C 12.3125 0 12.355469 -0.046875 12.402344 -0.046875 C 12.496094 -0.046875 12.585938 -0.0898438 12.722656 -0.136719 C 16.886719 -1.464844 17.710938 -5.308594 17.710938 -7.414062 Z M 17.667969 -34.003906 "/></g></g></g><g fill="#000000" fill-opacity="1"><g transform="translate(258.561192, 125.112117)"><g><path d="M 13.546875 -20.6875 C 15.242188 -22.105469 16.613281 -24.394531 16.613281 -27.828125 C 16.613281 -35.148438 10.847656 -36.613281 8.101562 -36.613281 C 5.355469 -36.613281 2.746094 -35.746094 1.785156 -35.378906 C 1.96875 -35.058594 2.015625 -34.738281 2.015625 -34.464844 C 2.058594 -33.042969 2.152344 -28.652344 2.152344 -21.832031 L 2.152344 -20.503906 C 2.152344 -20.320312 2.152344 -20.136719 2.152344 -19.953125 L 2.152344 -17.484375 C 2.152344 -5.402344 1.832031 -1.832031 1.832031 -1.695312 C 1.832031 -1.554688 1.785156 -0.914062 1.601562 -0.503906 C 2.5625 -0.0898438 7.183594 -0.046875 9.929688 -0.046875 C 12.675781 -0.046875 18.855469 -1.695312 18.855469 -10.480469 C 18.855469 -17.207031 16.0625 -19.773438 13.546875 -20.6875 Z M 6.085938 -32.90625 C 6.636719 -33.179688 7.367188 -33.363281 8.511719 -33.226562 C 9.976562 -33.136719 12.769531 -31.898438 12.722656 -27.828125 C 12.722656 -23.660156 10.710938 -21.464844 8.375 -21.464844 C 7.78125 -21.464844 6.863281 -21.464844 5.996094 -21.554688 L 5.996094 -27.414062 C 5.996094 -30.710938 6.042969 -32.496094 6.085938 -32.90625 Z M 10.113281 -4.027344 C 9.0625 -4.027344 6.683594 -4.117188 6.085938 -4.300781 C 6.042969 -5.8125 5.996094 -8.46875 5.996094 -10.25 C 5.996094 -14.28125 6.042969 -16.886719 6.085938 -17.710938 C 7.046875 -17.894531 8.742188 -17.988281 10.25 -17.988281 C 12.082031 -17.988281 14.964844 -16.980469 14.964844 -10.480469 C 14.964844 -4.484375 11.121094 -4.027344 10.113281 -4.027344 Z M 10.113281 -4.027344 "/></g></g></g><g fill="#000000" fill-opacity="1"><g transform="translate(279.564387, 125.112117)"><g><path d="M 13.363281 -4.300781 L 6.269531 -4.300781 C 6.132812 -7.003906 6.085938 -11.992188 6.269531 -16.0625 L 9.289062 -16.0625 C 10.296875 -16.0625 11.351562 -15.835938 11.898438 -15.699219 C 11.898438 -16.246094 11.898438 -17.300781 11.898438 -18.214844 L 11.898438 -20.734375 C 11.351562 -20.550781 10.296875 -20.320312 9.289062 -20.320312 L 6.269531 -20.320312 C 6.269531 -21.375 6.179688 -21.417969 6.179688 -25.90625 C 6.179688 -29.0625 6.222656 -31.441406 6.269531 -32.359375 L 13.320312 -32.359375 C 14.371094 -32.359375 15.421875 -32.128906 15.925781 -31.945312 C 15.925781 -32.496094 15.925781 -33.546875 15.925781 -34.464844 L 15.925781 -36.980469 C 15.421875 -36.84375 14.371094 -36.613281 13.320312 -36.613281 L 6.636719 -36.613281 C 6.085938 -36.613281 5.035156 -36.613281 4.117188 -36.613281 L 1.601562 -36.613281 C 1.785156 -36.109375 2.015625 -35.058594 2.015625 -34.003906 C 2.015625 -32.449219 2.058594 -27.871094 2.058594 -20.914062 C 2.058594 -7.644531 2.015625 -2.976562 2.015625 -2.5625 C 2.015625 -1.695312 1.921875 -0.503906 1.738281 0 L 1.875 0 C 2.015625 0 2.242188 0 2.5625 0 L 13.363281 0 C 14.417969 0 15.46875 0.230469 16.019531 0.367188 C 16.019531 -0.183594 16.019531 -1.234375 16.019531 -2.152344 L 16.019531 -4.667969 C 15.46875 -4.53125 14.417969 -4.300781 13.363281 -4.300781 Z M 13.363281 -4.300781 "/></g></g></g><g fill="#000000" fill-opacity="1"><g transform="translate(297.639074, 125.112117)"><g><path d="M 12.722656 -3.84375 C 12.265625 -3.796875 10.160156 -3.707031 6.222656 -3.753906 C 6.179688 -6.363281 6.042969 -12.769531 6.042969 -18.949219 C 6.042969 -27.644531 6.179688 -32.632812 6.269531 -34.003906 C 6.269531 -35.058594 6.5 -36.109375 6.636719 -36.613281 C 6.085938 -36.613281 5.035156 -36.613281 4.117188 -36.613281 L 1.601562 -36.613281 C 1.785156 -36.109375 2.015625 -35.058594 2.015625 -34.003906 C 2.105469 -32.859375 2.242188 -28.007812 2.242188 -18.949219 C 2.242188 -4.941406 2.015625 -2.929688 2.015625 -2.5625 C 2.015625 -1.648438 1.921875 -0.503906 1.738281 0 C 2.195312 0 3.15625 0 4.117188 0 L 15.011719 0 C 15.011719 -0.273438 15.011719 -1.050781 15.011719 -1.96875 L 15.011719 -4.164062 C 14.644531 -4.027344 13.777344 -3.84375 12.722656 -3.84375 Z M 12.722656 -3.84375 "/></g></g></g><path stroke-linecap="round" transform="matrix(0.748867, 0.00153631, -0.00153454, 0.748004, 158.309102, 137.149834)" fill="none" stroke-linejoin="miter" d="M 0.997665 0.998752 L 242.72226 0.998391 " stroke="#000000" stroke-width="2" stroke-opacity="1" stroke-miterlimit="4"/></svg>